<svg height="60" width="60"
  style="width: 60px; height: 60px; position: absolute; top: 50%; left: 50%; transform: translate(-50%, -50%) scale(1); z-index: 0; cursor: pointer;">
  <defs id="SvgjsDefs1001"></defs>
  <g id="SvgjsG1007" featurekey="PG4fjM-0"
    transform="matrix(0.5263157894736842,0,0,0.5263157894736842,-3.6842105263157894,-3.6842105263157894)"
    fill="#2688f0">
    <g xmlns="http://www.w3.org/2000/svg" class="st0" style="display: none;">
      <g class="st1" style="display: inline;">
        <rect class="st2" width="128" height="128"
          style="fill: none; stroke: #2688f0; stroke-width: 0.1; stroke-miterlimit: 10;"></rect>
        <line class="st2" x1="0" y1="124" x2="128" y2="124"
          style="fill: none; stroke: #2688f0; stroke-width: 0.1; stroke-miterlimit: 10;"></line>
        <line class="st2" x1="0" y1="120" x2="128" y2="120"
          style="fill: none; stroke: #2688f0; stroke-width: 0.1; stroke-miterlimit: 10;"></line>
        <line class="st2" x1="0" y1="116" x2="128" y2="116"
          style="fill: none; stroke: #2688f0; stroke-width: 0.1; stroke-miterlimit: 10;"></line>
        <line class="st2" x1="0" y1="112" x2="128" y2="112"
          style="fill: none; stroke: #2688f0; stroke-width: 0.1; stroke-miterlimit: 10;"></line>
        <line class="st2" x1="0" y1="108" x2="128" y2="108"
          style="fill: none; stroke: #2688f0; stroke-width: 0.1; stroke-miterlimit: 10;"></line>
        <line class="st2" x1="0" y1="104" x2="128" y2="104"
          style="fill: none; stroke: #2688f0; stroke-width: 0.1; stroke-miterlimit: 10;"></line>
        <line class="st2" x1="0" y1="100" x2="128" y2="100"
          style="fill: none; stroke: #2688f0; stroke-width: 0.1; stroke-miterlimit: 10;"></line>
        <line class="st2" x1="0" y1="96" x2="128" y2="96"
          style="fill: none; stroke: #2688f0; stroke-width: 0.1; stroke-miterlimit: 10;"></line>
        <line class="st2" x1="0" y1="92" x2="128" y2="92"
          style="fill: none; stroke: #2688f0; stroke-width: 0.1; stroke-miterlimit: 10;"></line>
        <line class="st2" x1="0" y1="88" x2="128" y2="88"
          style="fill: none; stroke: #2688f0; stroke-width: 0.1; stroke-miterlimit: 10;"></line>
        <line class="st2" x1="0" y1="84" x2="128" y2="84"
          style="fill: none; stroke: #2688f0; stroke-width: 0.1; stroke-miterlimit: 10;"></line>
        <line class="st2" x1="0" y1="80" x2="128" y2="80"
          style="fill: none; stroke: #2688f0; stroke-width: 0.1; stroke-miterlimit: 10;"></line>
        <line class="st2" x1="0" y1="76" x2="128" y2="76"
          style="fill: none; stroke: #2688f0; stroke-width: 0.1; stroke-miterlimit: 10;"></line>
        <line class="st2" x1="0" y1="72" x2="128" y2="72"
          style="fill: none; stroke: #2688f0; stroke-width: 0.1; stroke-miterlimit: 10;"></line>
        <line class="st2" x1="0" y1="68" x2="128" y2="68"
          style="fill: none; stroke: #2688f0; stroke-width: 0.1; stroke-miterlimit: 10;"></line>
        <line class="st2" x1="0" y1="64" x2="128" y2="64"
          style="fill: none; stroke: #2688f0; stroke-width: 0.1; stroke-miterlimit: 10;"></line>
        <line class="st2" x1="0" y1="60" x2="128" y2="60"
          style="fill: none; stroke: #2688f0; stroke-width: 0.1; stroke-miterlimit: 10;"></line>
        <line class="st2" x1="0" y1="56" x2="128" y2="56"
          style="fill: none; stroke: #2688f0; stroke-width: 0.1; stroke-miterlimit: 10;"></line>
        <line class="st2" x1="0" y1="52" x2="128" y2="52"
          style="fill: none; stroke: #2688f0; stroke-width: 0.1; stroke-miterlimit: 10;"></line>
        <line class="st2" x1="0" y1="48" x2="128" y2="48"
          style="fill: none; stroke: #2688f0; stroke-width: 0.1; stroke-miterlimit: 10;"></line>
        <line class="st2" x1="0" y1="44" x2="128" y2="44"
          style="fill: none; stroke: #2688f0; stroke-width: 0.1; stroke-miterlimit: 10;"></line>
        <line class="st2" x1="0" y1="40" x2="128" y2="40"
          style="fill: none; stroke: #2688f0; stroke-width: 0.1; stroke-miterlimit: 10;"></line>
        <line class="st2" x1="0" y1="36" x2="128" y2="36"
          style="fill: none; stroke: #2688f0; stroke-width: 0.1; stroke-miterlimit: 10;"></line>
        <line class="st2" x1="0" y1="32" x2="128" y2="32"
          style="fill: none; stroke: #2688f0; stroke-width: 0.1; stroke-miterlimit: 10;"></line>
        <line class="st2" x1="0" y1="28" x2="128" y2="28"
          style="fill: none; stroke: #2688f0; stroke-width: 0.1; stroke-miterlimit: 10;"></line>
        <line class="st2" x1="0" y1="24" x2="128" y2="24"
          style="fill: none; stroke: #2688f0; stroke-width: 0.1; stroke-miterlimit: 10;"></line>
        <line class="st2" x1="0" y1="20" x2="128" y2="20"
          style="fill: none; stroke: #2688f0; stroke-width: 0.1; stroke-miterlimit: 10;"></line>
        <line class="st2" x1="0" y1="16" x2="128" y2="16"
          style="fill: none; stroke: #2688f0; stroke-width: 0.1; stroke-miterlimit: 10;"></line>
        <line class="st2" x1="0" y1="12" x2="128" y2="12"
          style="fill: none; stroke: #2688f0; stroke-width: 0.1; stroke-miterlimit: 10;"></line>
        <line class="st2" x1="0" y1="8" x2="128" y2="8"
          style="fill: none; stroke: #2688f0; stroke-width: 0.1; stroke-miterlimit: 10;"></line>
        <line class="st2" x1="0" y1="4" x2="128" y2="4"
          style="fill: none; stroke: #2688f0; stroke-width: 0.1; stroke-miterlimit: 10;"></line>
        <line class="st2" x1="124" y1="0" x2="124" y2="128"
          style="fill: none; stroke: #2688f0; stroke-width: 0.1; stroke-miterlimit: 10;"></line>
        <line class="st2" x1="120" y1="0" x2="120" y2="128"
          style="fill: none; stroke: #2688f0; stroke-width: 0.1; stroke-miterlimit: 10;"></line>
        <line class="st2" x1="116" y1="0" x2="116" y2="128"
          style="fill: none; stroke: #2688f0; stroke-width: 0.1; stroke-miterlimit: 10;"></line>
        <line class="st2" x1="112" y1="0" x2="112" y2="128"
          style="fill: none; stroke: #2688f0; stroke-width: 0.1; stroke-miterlimit: 10;"></line>
        <line class="st2" x1="108" y1="0" x2="108" y2="128"
          style="fill: none; stroke: #2688f0; stroke-width: 0.1; stroke-miterlimit: 10;"></line>
        <line class="st2" x1="104" y1="0" x2="104" y2="128"
          style="fill: none; stroke: #2688f0; stroke-width: 0.1; stroke-miterlimit: 10;"></line>
        <line class="st2" x1="100" y1="0" x2="100" y2="128"
          style="fill: none; stroke: #2688f0; stroke-width: 0.1; stroke-miterlimit: 10;"></line>
        <line class="st2" x1="96" y1="0" x2="96" y2="128"
          style="fill: none; stroke: #2688f0; stroke-width: 0.1; stroke-miterlimit: 10;"></line>
        <line class="st2" x1="92" y1="0" x2="92" y2="128"
          style="fill: none; stroke: #2688f0; stroke-width: 0.1; stroke-miterlimit: 10;"></line>
        <line class="st2" x1="88" y1="0" x2="88" y2="128"
          style="fill: none; stroke: #2688f0; stroke-width: 0.1; stroke-miterlimit: 10;"></line>
        <line class="st2" x1="84" y1="0" x2="84" y2="128"
          style="fill: none; stroke: #2688f0; stroke-width: 0.1; stroke-miterlimit: 10;"></line>
        <line class="st2" x1="80" y1="0" x2="80" y2="128"
          style="fill: none; stroke: #2688f0; stroke-width: 0.1; stroke-miterlimit: 10;"></line>
        <line class="st2" x1="76" y1="0" x2="76" y2="128"
          style="fill: none; stroke: #2688f0; stroke-width: 0.1; stroke-miterlimit: 10;"></line>
        <line class="st2" x1="72" y1="0" x2="72" y2="128"
          style="fill: none; stroke: #2688f0; stroke-width: 0.1; stroke-miterlimit: 10;"></line>
        <line class="st2" x1="68" y1="0" x2="68" y2="128"
          style="fill: none; stroke: #2688f0; stroke-width: 0.1; stroke-miterlimit: 10;"></line>
        <line class="st2" x1="64" y1="0" x2="64" y2="128"
          style="fill: none; stroke: #2688f0; stroke-width: 0.1; stroke-miterlimit: 10;"></line>
        <line class="st2" x1="60" y1="0" x2="60" y2="128"
          style="fill: none; stroke: #2688f0; stroke-width: 0.1; stroke-miterlimit: 10;"></line>
        <line class="st2" x1="56" y1="0" x2="56" y2="128"
          style="fill: none; stroke: #2688f0; stroke-width: 0.1; stroke-miterlimit: 10;"></line>
        <line class="st2" x1="52" y1="0" x2="52" y2="128"
          style="fill: none; stroke: #2688f0; stroke-width: 0.1; stroke-miterlimit: 10;"></line>
        <line class="st2" x1="48" y1="0" x2="48" y2="128"
          style="fill: none; stroke: #2688f0; stroke-width: 0.1; stroke-miterlimit: 10;"></line>
        <line class="st2" x1="44" y1="0" x2="44" y2="128"
          style="fill: none; stroke: #2688f0; stroke-width: 0.1; stroke-miterlimit: 10;"></line>
        <line class="st2" x1="40" y1="0" x2="40" y2="128"
          style="fill: none; stroke: #2688f0; stroke-width: 0.1; stroke-miterlimit: 10;"></line>
        <line class="st2" x1="36" y1="0" x2="36" y2="128"
          style="fill: none; stroke: #2688f0; stroke-width: 0.1; stroke-miterlimit: 10;"></line>
        <line class="st2" x1="32" y1="0" x2="32" y2="128"
          style="fill: none; stroke: #2688f0; stroke-width: 0.1; stroke-miterlimit: 10;"></line>
        <line class="st2" x1="28" y1="0" x2="28" y2="128"
          style="fill: none; stroke: #2688f0; stroke-width: 0.1; stroke-miterlimit: 10;"></line>
        <line class="st2" x1="24" y1="0" x2="24" y2="128"
          style="fill: none; stroke: #2688f0; stroke-width: 0.1; stroke-miterlimit: 10;"></line>
        <line class="st2" x1="20" y1="0" x2="20" y2="128"
          style="fill: none; stroke: #2688f0; stroke-width: 0.1; stroke-miterlimit: 10;"></line>
        <line class="st2" x1="16" y1="0" x2="16" y2="128"
          style="fill: none; stroke: #2688f0; stroke-width: 0.1; stroke-miterlimit: 10;"></line>
        <line class="st2" x1="12" y1="0" x2="12" y2="128"
          style="fill: none; stroke: #2688f0; stroke-width: 0.1; stroke-miterlimit: 10;"></line>
        <line class="st2" x1="8" y1="0" x2="8" y2="128"
          style="fill: none; stroke: #2688f0; stroke-width: 0.1; stroke-miterlimit: 10;"></line>
        <line class="st2" x1="4" y1="0" x2="4" y2="128"
          style="fill: none; stroke: #2688f0; stroke-width: 0.1; stroke-miterlimit: 10;"></line>
      </g>
    </g>
    <g xmlns="http://www.w3.org/2000/svg">
      <g>
        <g><text transform="matrix(1.263 0 0 1 73.6806 44.2969)" class="st3 st4"
            style="font-family: 'MyriadPro-Regular'; font-size: 14.8632px;">B</text><text
            transform="matrix(1 0 0 1 45.5526 44.4932)" class="st3 st5"
            style="font-family: 'MyriadPro-Regular'; font-size: 15.5241px;">A</text></g>
      </g>
      <g>
        <rect x="63" y="73" width="1.9" height="3.3"></rect>
        <rect x="56.5" y="61.6" width="4.2" height="14.2"></rect>
        <rect x="63" y="68.3" width="1.9" height="3.3"></rect>
        <rect x="51.3" y="58.2" width="4.2" height="17.6"></rect>
        <rect x="63" y="82.5" width="1.9" height="2.6"></rect>
        <rect x="63" y="58.9" width="1.9" height="3.3"></rect>
        <rect x="40.8" y="67.3" width="4.2" height="8.5"></rect>
        <rect x="46.1" y="54.1" width="4.2" height="21.7"></rect>
        <rect x="63" y="63.6" width="1.9" height="3.3"></rect>
        <rect x="77.8" y="58.2" width="4.2" height="17.6"></rect>
        <rect x="83" y="61.6" width="4.2" height="14.2"></rect>
        <path
          d="M64,7C32.6,7,7,32.6,7,64c0,31.4,25.6,57,57,57s57-25.6,57-57C121,32.6,95.4,7,64,7z M91.4,84.9    c0,1.9-1.5,3.5-3.5,3.5H65v6.2h9.4c0.5,0,1,0.4,1,1c0,0.5-0.4,1-1,1H53.7c-0.5,0-1-0.4-1-1c0-0.5,0.4-1,1-1H63v-6.2H40    c-1.9,0-3.4-1.5-3.4-3.4v-4.8H63V81H65v-0.8h26.4V84.9z M91.4,78.3H65v-0.5H63v0.5H36.6V49c0-1.9,1.5-3.4,3.4-3.4h23V48H65v-2.4    h23c1.9,0,3.4,1.5,3.4,3.4V78.3z">
        </path>
        <rect x="67.3" y="67.3" width="4.2" height="8.5"></rect>
        <rect x="72.6" y="54.1" width="4.2" height="21.7"></rect>
        <rect x="63" y="54.1" width="1.9" height="3.3"></rect>
        <rect x="63" y="49.4" width="1.9" height="3.3"></rect>
      </g>
    </g>
  </g>
</svg>