<svg height="60" width="280"
  style="width: 280px; height: 60px; position: absolute; top: 50%; left: 50%; transform: translate(-50%, -50%) scale(1); z-index: 0; cursor: pointer;">
  <defs id="SvgjsDefs1001"></defs>
  <g id="SvgjsG1007" featurekey="PG4fjM-0"
    transform="matrix(0.5263157894736842,0,0,0.5263157894736842,-3.6842105263157894,-3.6842105263157894)"
    fill="#2688f0">
    <g xmlns="http://www.w3.org/2000/svg" class="st0" style="display: none;">
      <g class="st1" style="display: inline;">
        <rect class="st2" width="128" height="128"
          style="fill: none; stroke: #2688f0; stroke-width: 0.1; stroke-miterlimit: 10;"></rect>
        <line class="st2" x1="0" y1="124" x2="128" y2="124"
          style="fill: none; stroke: #2688f0; stroke-width: 0.1; stroke-miterlimit: 10;"></line>
        <line class="st2" x1="0" y1="120" x2="128" y2="120"
          style="fill: none; stroke: #2688f0; stroke-width: 0.1; stroke-miterlimit: 10;"></line>
        <line class="st2" x1="0" y1="116" x2="128" y2="116"
          style="fill: none; stroke: #2688f0; stroke-width: 0.1; stroke-miterlimit: 10;"></line>
        <line class="st2" x1="0" y1="112" x2="128" y2="112"
          style="fill: none; stroke: #2688f0; stroke-width: 0.1; stroke-miterlimit: 10;"></line>
        <line class="st2" x1="0" y1="108" x2="128" y2="108"
          style="fill: none; stroke: #2688f0; stroke-width: 0.1; stroke-miterlimit: 10;"></line>
        <line class="st2" x1="0" y1="104" x2="128" y2="104"
          style="fill: none; stroke: #2688f0; stroke-width: 0.1; stroke-miterlimit: 10;"></line>
        <line class="st2" x1="0" y1="100" x2="128" y2="100"
          style="fill: none; stroke: #2688f0; stroke-width: 0.1; stroke-miterlimit: 10;"></line>
        <line class="st2" x1="0" y1="96" x2="128" y2="96"
          style="fill: none; stroke: #2688f0; stroke-width: 0.1; stroke-miterlimit: 10;"></line>
        <line class="st2" x1="0" y1="92" x2="128" y2="92"
          style="fill: none; stroke: #2688f0; stroke-width: 0.1; stroke-miterlimit: 10;"></line>
        <line class="st2" x1="0" y1="88" x2="128" y2="88"
          style="fill: none; stroke: #2688f0; stroke-width: 0.1; stroke-miterlimit: 10;"></line>
        <line class="st2" x1="0" y1="84" x2="128" y2="84"
          style="fill: none; stroke: #2688f0; stroke-width: 0.1; stroke-miterlimit: 10;"></line>
        <line class="st2" x1="0" y1="80" x2="128" y2="80"
          style="fill: none; stroke: #2688f0; stroke-width: 0.1; stroke-miterlimit: 10;"></line>
        <line class="st2" x1="0" y1="76" x2="128" y2="76"
          style="fill: none; stroke: #2688f0; stroke-width: 0.1; stroke-miterlimit: 10;"></line>
        <line class="st2" x1="0" y1="72" x2="128" y2="72"
          style="fill: none; stroke: #2688f0; stroke-width: 0.1; stroke-miterlimit: 10;"></line>
        <line class="st2" x1="0" y1="68" x2="128" y2="68"
          style="fill: none; stroke: #2688f0; stroke-width: 0.1; stroke-miterlimit: 10;"></line>
        <line class="st2" x1="0" y1="64" x2="128" y2="64"
          style="fill: none; stroke: #2688f0; stroke-width: 0.1; stroke-miterlimit: 10;"></line>
        <line class="st2" x1="0" y1="60" x2="128" y2="60"
          style="fill: none; stroke: #2688f0; stroke-width: 0.1; stroke-miterlimit: 10;"></line>
        <line class="st2" x1="0" y1="56" x2="128" y2="56"
          style="fill: none; stroke: #2688f0; stroke-width: 0.1; stroke-miterlimit: 10;"></line>
        <line class="st2" x1="0" y1="52" x2="128" y2="52"
          style="fill: none; stroke: #2688f0; stroke-width: 0.1; stroke-miterlimit: 10;"></line>
        <line class="st2" x1="0" y1="48" x2="128" y2="48"
          style="fill: none; stroke: #2688f0; stroke-width: 0.1; stroke-miterlimit: 10;"></line>
        <line class="st2" x1="0" y1="44" x2="128" y2="44"
          style="fill: none; stroke: #2688f0; stroke-width: 0.1; stroke-miterlimit: 10;"></line>
        <line class="st2" x1="0" y1="40" x2="128" y2="40"
          style="fill: none; stroke: #2688f0; stroke-width: 0.1; stroke-miterlimit: 10;"></line>
        <line class="st2" x1="0" y1="36" x2="128" y2="36"
          style="fill: none; stroke: #2688f0; stroke-width: 0.1; stroke-miterlimit: 10;"></line>
        <line class="st2" x1="0" y1="32" x2="128" y2="32"
          style="fill: none; stroke: #2688f0; stroke-width: 0.1; stroke-miterlimit: 10;"></line>
        <line class="st2" x1="0" y1="28" x2="128" y2="28"
          style="fill: none; stroke: #2688f0; stroke-width: 0.1; stroke-miterlimit: 10;"></line>
        <line class="st2" x1="0" y1="24" x2="128" y2="24"
          style="fill: none; stroke: #2688f0; stroke-width: 0.1; stroke-miterlimit: 10;"></line>
        <line class="st2" x1="0" y1="20" x2="128" y2="20"
          style="fill: none; stroke: #2688f0; stroke-width: 0.1; stroke-miterlimit: 10;"></line>
        <line class="st2" x1="0" y1="16" x2="128" y2="16"
          style="fill: none; stroke: #2688f0; stroke-width: 0.1; stroke-miterlimit: 10;"></line>
        <line class="st2" x1="0" y1="12" x2="128" y2="12"
          style="fill: none; stroke: #2688f0; stroke-width: 0.1; stroke-miterlimit: 10;"></line>
        <line class="st2" x1="0" y1="8" x2="128" y2="8"
          style="fill: none; stroke: #2688f0; stroke-width: 0.1; stroke-miterlimit: 10;"></line>
        <line class="st2" x1="0" y1="4" x2="128" y2="4"
          style="fill: none; stroke: #2688f0; stroke-width: 0.1; stroke-miterlimit: 10;"></line>
        <line class="st2" x1="124" y1="0" x2="124" y2="128"
          style="fill: none; stroke: #2688f0; stroke-width: 0.1; stroke-miterlimit: 10;"></line>
        <line class="st2" x1="120" y1="0" x2="120" y2="128"
          style="fill: none; stroke: #2688f0; stroke-width: 0.1; stroke-miterlimit: 10;"></line>
        <line class="st2" x1="116" y1="0" x2="116" y2="128"
          style="fill: none; stroke: #2688f0; stroke-width: 0.1; stroke-miterlimit: 10;"></line>
        <line class="st2" x1="112" y1="0" x2="112" y2="128"
          style="fill: none; stroke: #2688f0; stroke-width: 0.1; stroke-miterlimit: 10;"></line>
        <line class="st2" x1="108" y1="0" x2="108" y2="128"
          style="fill: none; stroke: #2688f0; stroke-width: 0.1; stroke-miterlimit: 10;"></line>
        <line class="st2" x1="104" y1="0" x2="104" y2="128"
          style="fill: none; stroke: #2688f0; stroke-width: 0.1; stroke-miterlimit: 10;"></line>
        <line class="st2" x1="100" y1="0" x2="100" y2="128"
          style="fill: none; stroke: #2688f0; stroke-width: 0.1; stroke-miterlimit: 10;"></line>
        <line class="st2" x1="96" y1="0" x2="96" y2="128"
          style="fill: none; stroke: #2688f0; stroke-width: 0.1; stroke-miterlimit: 10;"></line>
        <line class="st2" x1="92" y1="0" x2="92" y2="128"
          style="fill: none; stroke: #2688f0; stroke-width: 0.1; stroke-miterlimit: 10;"></line>
        <line class="st2" x1="88" y1="0" x2="88" y2="128"
          style="fill: none; stroke: #2688f0; stroke-width: 0.1; stroke-miterlimit: 10;"></line>
        <line class="st2" x1="84" y1="0" x2="84" y2="128"
          style="fill: none; stroke: #2688f0; stroke-width: 0.1; stroke-miterlimit: 10;"></line>
        <line class="st2" x1="80" y1="0" x2="80" y2="128"
          style="fill: none; stroke: #2688f0; stroke-width: 0.1; stroke-miterlimit: 10;"></line>
        <line class="st2" x1="76" y1="0" x2="76" y2="128"
          style="fill: none; stroke: #2688f0; stroke-width: 0.1; stroke-miterlimit: 10;"></line>
        <line class="st2" x1="72" y1="0" x2="72" y2="128"
          style="fill: none; stroke: #2688f0; stroke-width: 0.1; stroke-miterlimit: 10;"></line>
        <line class="st2" x1="68" y1="0" x2="68" y2="128"
          style="fill: none; stroke: #2688f0; stroke-width: 0.1; stroke-miterlimit: 10;"></line>
        <line class="st2" x1="64" y1="0" x2="64" y2="128"
          style="fill: none; stroke: #2688f0; stroke-width: 0.1; stroke-miterlimit: 10;"></line>
        <line class="st2" x1="60" y1="0" x2="60" y2="128"
          style="fill: none; stroke: #2688f0; stroke-width: 0.1; stroke-miterlimit: 10;"></line>
        <line class="st2" x1="56" y1="0" x2="56" y2="128"
          style="fill: none; stroke: #2688f0; stroke-width: 0.1; stroke-miterlimit: 10;"></line>
        <line class="st2" x1="52" y1="0" x2="52" y2="128"
          style="fill: none; stroke: #2688f0; stroke-width: 0.1; stroke-miterlimit: 10;"></line>
        <line class="st2" x1="48" y1="0" x2="48" y2="128"
          style="fill: none; stroke: #2688f0; stroke-width: 0.1; stroke-miterlimit: 10;"></line>
        <line class="st2" x1="44" y1="0" x2="44" y2="128"
          style="fill: none; stroke: #2688f0; stroke-width: 0.1; stroke-miterlimit: 10;"></line>
        <line class="st2" x1="40" y1="0" x2="40" y2="128"
          style="fill: none; stroke: #2688f0; stroke-width: 0.1; stroke-miterlimit: 10;"></line>
        <line class="st2" x1="36" y1="0" x2="36" y2="128"
          style="fill: none; stroke: #2688f0; stroke-width: 0.1; stroke-miterlimit: 10;"></line>
        <line class="st2" x1="32" y1="0" x2="32" y2="128"
          style="fill: none; stroke: #2688f0; stroke-width: 0.1; stroke-miterlimit: 10;"></line>
        <line class="st2" x1="28" y1="0" x2="28" y2="128"
          style="fill: none; stroke: #2688f0; stroke-width: 0.1; stroke-miterlimit: 10;"></line>
        <line class="st2" x1="24" y1="0" x2="24" y2="128"
          style="fill: none; stroke: #2688f0; stroke-width: 0.1; stroke-miterlimit: 10;"></line>
        <line class="st2" x1="20" y1="0" x2="20" y2="128"
          style="fill: none; stroke: #2688f0; stroke-width: 0.1; stroke-miterlimit: 10;"></line>
        <line class="st2" x1="16" y1="0" x2="16" y2="128"
          style="fill: none; stroke: #2688f0; stroke-width: 0.1; stroke-miterlimit: 10;"></line>
        <line class="st2" x1="12" y1="0" x2="12" y2="128"
          style="fill: none; stroke: #2688f0; stroke-width: 0.1; stroke-miterlimit: 10;"></line>
        <line class="st2" x1="8" y1="0" x2="8" y2="128"
          style="fill: none; stroke: #2688f0; stroke-width: 0.1; stroke-miterlimit: 10;"></line>
        <line class="st2" x1="4" y1="0" x2="4" y2="128"
          style="fill: none; stroke: #2688f0; stroke-width: 0.1; stroke-miterlimit: 10;"></line>
      </g>
    </g>
    <g xmlns="http://www.w3.org/2000/svg">
      <g>
        <g><text transform="matrix(1.263 0 0 1 73.6806 44.2969)" class="st3 st4"
            style="font-family: 'MyriadPro-Regular'; font-size: 14.8632px;">B</text><text
            transform="matrix(1 0 0 1 45.5526 44.4932)" class="st3 st5"
            style="font-family: 'MyriadPro-Regular'; font-size: 15.5241px;">A</text></g>
      </g>
      <g>
        <rect x="63" y="73" width="1.9" height="3.3"></rect>
        <rect x="56.5" y="61.6" width="4.2" height="14.2"></rect>
        <rect x="63" y="68.3" width="1.9" height="3.3"></rect>
        <rect x="51.3" y="58.2" width="4.2" height="17.6"></rect>
        <rect x="63" y="82.5" width="1.9" height="2.6"></rect>
        <rect x="63" y="58.9" width="1.9" height="3.3"></rect>
        <rect x="40.8" y="67.3" width="4.2" height="8.5"></rect>
        <rect x="46.1" y="54.1" width="4.2" height="21.7"></rect>
        <rect x="63" y="63.6" width="1.9" height="3.3"></rect>
        <rect x="77.8" y="58.2" width="4.2" height="17.6"></rect>
        <rect x="83" y="61.6" width="4.2" height="14.2"></rect>
        <path
          d="M64,7C32.6,7,7,32.6,7,64c0,31.4,25.6,57,57,57s57-25.6,57-57C121,32.6,95.4,7,64,7z M91.4,84.9    c0,1.9-1.5,3.5-3.5,3.5H65v6.2h9.4c0.5,0,1,0.4,1,1c0,0.5-0.4,1-1,1H53.7c-0.5,0-1-0.4-1-1c0-0.5,0.4-1,1-1H63v-6.2H40    c-1.9,0-3.4-1.5-3.4-3.4v-4.8H63V81H65v-0.8h26.4V84.9z M91.4,78.3H65v-0.5H63v0.5H36.6V49c0-1.9,1.5-3.4,3.4-3.4h23V48H65v-2.4    h23c1.9,0,3.4,1.5,3.4,3.4V78.3z">
        </path>
        <rect x="67.3" y="67.3" width="4.2" height="8.5"></rect>
        <rect x="72.6" y="54.1" width="4.2" height="21.7"></rect>
        <rect x="63" y="54.1" width="1.9" height="3.3"></rect>
        <rect x="63" y="49.4" width="1.9" height="3.3"></rect>
      </g>
    </g>
  </g>
  <g id="SvgjsG1008" featurekey="jxYttZ-0"
    transform="matrix(2.817694992127149,0,0,2.817694992127149,77.18230635145453,-4.581294376487278)" fill="#0d0d0d">
    <path
      d="M11.9 14.5 c0.06 0.14 0.54 1.5 -0.08 2.92 c-0.72 1.7 -2.74 2.76 -5.26 2.78 c-2.18 0 -4.16 -0.96 -5.56 -2.48 l1.48 -1.48 c0.7 1.24 2.48 2.12 4.08 2.12 c1.74 -0.02 2.76 -0.66 3.18 -1.66 c0.32 -0.74 0.06 -1.54 0.04 -1.56 c-0.42 -1.16 -1.58 -1.42 -3.22 -1.92 c-1.86 -0.56 -4 -1.02 -4.7 -2.98 c-0.38 -1.02 -0.28 -2.2 0.24 -3.16 c1.16 -2.2 4.12 -2.26 4.46 -2.26 c2.2 0 4.16 0.96 5.56 2.5 l-1.46 1.46 c-0.82 -1.2 -2.42 -2.12 -4.1 -2.12 c-0.02 0 -1.78 0 -2.46 1.28 c-0.26 0.5 -0.32 1.16 -0.14 1.68 c0.4 1.1 1.54 1.36 3.14 1.84 c1.9 0.58 4.04 1.02 4.8 3.04 z M19.48 11.64 c-1.7 0 -3.08 1.42 -3.08 3.44 c0 2 1.38 3.44 3.08 3.44 s3.08 -1.44 3.08 -3.44 c0 -2.02 -1.38 -3.44 -3.08 -3.44 z M19.48 9.94 c2.84 0 5.14 2.2 5.14 5.14 s-2.3 5.12 -5.14 5.12 s-5.14 -2.18 -5.14 -5.12 s2.3 -5.14 5.14 -5.14 z M32.76 10.24 l-0.44 1.62 c-0.14 -0.08 -0.58 -0.22 -0.94 -0.22 c-1.7 0 -2.5 1.62 -2.5 3.62 l0 4.74 l-2.06 0 l0 -9.88 l2.06 0 l0 1.4 c0.24 -0.92 1.3 -1.58 2.48 -1.58 c0.54 0 1.12 0.14 1.4 0.3 z M38.18000000000001 9.92 c2.84 0 3.98 1.72 3.98 3.18 l0 6.9 l-2.06 0 l0 -1.08 c-0.72 0.98 -2 1.26 -2.8 1.26 c-2.26 0 -3.74 -1.32 -3.74 -3.08 c0 -2.46 1.84 -3.34 3.74 -3.34 l2.8 0 l0 -0.66 c0 -0.62 -0.24 -1.48 -1.92 -1.48 c-0.94 0 -1.8 0.5 -2.36 1.28 l-1.42 -1.28 c0.94 -1.04 2.28 -1.7 3.78 -1.7 z M40.10000000000001 16.92 l0 -1.48 l-2.52 0 c-1.22 0 -2.08 0.62 -1.94 1.74 c0.12 0.94 0.88 1.32 1.94 1.32 c1.9 0 2.52 -0.9 2.52 -1.58 z M53.52 14.3 l0 5.7 l-2.08 0 l0.02 -0.08 l0 -5.42 c0 -2 -0.52 -2.88 -2.22 -2.88 c-1.92 0 -2.6 1.34 -2.6 3.08 l0 5.3 l-2.06 0 l0 -9.88 l2.06 0 l0 1.6 c0.28 -0.88 1.42 -1.68 2.6 -1.76 c1.94 -0.14 3.32 0.5 3.94 2.1 c0.42 -1.36 1.76 -2.02 2.92 -2.1 c2.68 -0.2 4.28 1.1 4.28 4.34 l0 5.7 l-2.06 0 l0 -5.5 c0 -2 -0.52 -2.88 -2.22 -2.88 c-1.72 0 -2.44 1.08 -2.58 2.68 z M71.98 15.08 l0 0.74 l-7.78 0 c0 1.82 1.74 2.7 3.02 2.7 c0.94 0 1.98 -0.5 2.54 -1.3 l1.42 1.28 c-0.66 0.9 -1.74 1.7 -3.96 1.7 c-3.2 0 -5.16 -2.18 -5.16 -5.12 s1.9 -5.14 4.96 -5.14 s4.46 1.7 4.88 4.18 c0.06 0.32 0.08 0.64 0.08 0.96 z M64.24000000000001 14.120000000000001 l5.58 0 c0 -1.6 -1.28 -2.48 -2.8 -2.48 s-2.78 1.02 -2.78 2.48 z">
    </path>
  </g>
</svg>